HIERARCHY
ROOT root
{
	OFFSET 0.000000 0.000000 0.000000
	CHANNELS 6 Xposition Yposition Zposition Zrotation Yrotation Xrotation
	JOINT lhip
	{
		OFFSET 0.058581 -0.082280 -0.017664
		CHANNELS 3 Zrotation Yrotation Xrotation
		JOINT lknee
		{
			OFFSET 0.043451 -0.386469 0.008037
			CHANNELS 3 Zrotation Yrotation Xrotation
			JOINT lankle
			{
				OFFSET -0.014790 -0.426874 -0.037428
				CHANNELS 3 Zrotation Yrotation Xrotation
				JOINT ltoe
				{
					OFFSET 0.041054 -0.060286 0.122042
					CHANNELS 3 Zrotation Yrotation Xrotation
					End Site
					{
						OFFSET 0.000000 0.000000 0.000000
					}
				}
			}
		}
	}
	JOINT rhip
	{
		OFFSET -0.060310 -0.090513 -0.013543
		CHANNELS 3 Zrotation Yrotation Xrotation
		JOINT rknee
		{
			OFFSET -0.043257 -0.383688 -0.004843
			CHANNELS 3 Zrotation Yrotation Xrotation
			JOINT rankle
			{
				OFFSET 0.019056 -0.420046 -0.034562
				CHANNELS 3 Zrotation Yrotation Xrotation
				JOINT rtoe
				{
					OFFSET -0.034840 -0.062106 0.130323
					CHANNELS 3 Zrotation Yrotation Xrotation
					End Site
					{
						OFFSET 0.000000 0.000000 0.000000
					}
				}
			}
		}
	}
	JOINT lowerback
	{
		OFFSET 0.004439 0.124404 -0.038385
		CHANNELS 3 Zrotation Yrotation Xrotation
		JOINT upperback
		{
			OFFSET 0.004488 0.137956 0.026820
			CHANNELS 3 Zrotation Yrotation Xrotation
			JOINT chest
			{
				OFFSET -0.002265 0.056032 0.002855
				CHANNELS 3 Zrotation Yrotation Xrotation
				JOINT lowerneck
				{
					OFFSET -0.013390 0.211636 -0.033468
					CHANNELS 3 Zrotation Yrotation Xrotation
					JOINT upperneck
					{
						OFFSET 0.010113 0.088937 0.050410
						CHANNELS 3 Zrotation Yrotation Xrotation
						End Site
						{
							OFFSET 0.000000 0.000000 0.000000
						}
					}
				}
				JOINT lclavicle
				{
					OFFSET 0.071702 0.114000 -0.018898
					CHANNELS 3 Zrotation Yrotation Xrotation
					JOINT lshoulder
					{
						OFFSET 0.122921 0.045205 -0.019046
						CHANNELS 3 Zrotation Yrotation Xrotation
						JOINT lelbow
						{
							OFFSET 0.255332 -0.015649 -0.022946
							CHANNELS 3 Zrotation Yrotation Xrotation
							JOINT lwrist
							{
								OFFSET 0.265709 0.012698 -0.007375
								CHANNELS 3 Zrotation Yrotation Xrotation
								End Site
								{
									OFFSET 0.000000 0.000000 0.000000
								}
							}
						}
					}
				}
				JOINT rclavicle
				{
					OFFSET -0.082954 0.112472 -0.023707
					CHANNELS 3 Zrotation Yrotation Xrotation
					JOINT rshoulder
					{
						OFFSET -0.113228 0.046853 -0.008472
						CHANNELS 3 Zrotation Yrotation Xrotation
						JOINT relbow
						{
							OFFSET -0.260127 -0.014369 -0.031269
							CHANNELS 3 Zrotation Yrotation Xrotation
							JOINT rwrist
							{
								OFFSET -0.269108 0.006794 -0.006027
								CHANNELS 3 Zrotation Yrotation Xrotation
								End Site
								{
									OFFSET 0.000000 0.000000 0.000000
								}
							}
						}
					}
				}
			}
		}
	}
}
MOTION
Frames: 8
Frame Time: 0.033333
-0.263302 1.614060 0.983614 -167.529364 -1.321234 84.809667 1.962905 7.041702 4.670098 -7.441556 0.560151 21.868459 7.624775 15.305624 -29.886455 0.000000 -0.000000 0.000000 -5.671056 -2.760223 -27.419658 -1.753308 -5.766773 72.395911 7.948858 -10.120598 -7.352664 0.000000 -0.000000 0.000000 -2.575991 -3.353172 16.229347 5.045615 -1.764530 0.519343 2.068488 -3.926946 4.120861 2.703576 -0.081329 3.474947 0.334100 0.817299 7.812454 -12.353313 5.442289 7.984179 -60.267325 -7.865156 12.594426 -49.670404 -75.197247 75.521127 10.319294 -11.143486 -10.998380 17.799378 -5.451593 1.149309 59.270108 -9.383218 11.879027 -13.664307 52.416348 1.535414 4.417596 9.388351 -1.096476 
-0.266071 1.629612 0.985004 -167.355553 -0.645161 84.477604 2.780226 7.694012 6.545120 -6.976081 -0.320550 21.117917 6.948566 15.067614 -30.457479 0.000000 -0.000000 0.000000 -5.479122 -2.504175 -29.238684 -1.805773 -6.116042 67.005575 8.790962 -9.597602 -10.076623 0.000000 -0.000000 0.000000 -2.219547 -4.081660 16.546251 4.824621 -1.672637 0.442280 2.199348 -4.101390 3.938972 2.496995 0.299396 2.728367 0.552673 0.695974 7.206229 -12.457358 4.315633 7.576961 -61.430795 -9.724026 13.089922 -47.181279 -75.847683 73.181821 10.449514 -11.177091 -10.791174 17.426198 -5.058172 1.304641 59.408532 -9.434501 11.636973 -13.709274 52.424435 1.719196 4.251434 9.359561 -1.348036 
-0.268061 1.645793 0.986142 -167.392584 -0.121437 84.549858 3.483074 8.207569 8.145936 -6.566842 -0.927090 20.128212 6.260497 14.831253 -30.783925 0.000000 -0.000000 0.000000 -5.176797 -1.953903 -30.650579 -1.970300 -6.237242 59.280338 9.329641 -9.072564 -11.327314 0.000000 -0.000000 0.000000 -1.951758 -4.741559 16.616930 4.646986 -1.588520 0.380603 2.475461 -4.212371 3.789047 2.151217 0.565537 2.040574 0.865499 0.775698 6.316824 -12.313412 3.620079 7.295510 -62.977739 -11.197674 13.764375 -46.082425 -76.564464 72.163204 11.388313 -10.975116 -10.817559 16.939191 -4.835197 1.480852 59.500068 -9.326576 11.516616 -13.601299 52.461644 2.000951 3.832932 9.318273 -1.686671 
-0.269193 1.662818 0.986374 -167.262323 0.209131 85.067768 4.147917 8.715038 9.245451 -6.329396 -1.408537 19.223872 5.647288 14.353377 -30.995066 0.000000 -0.000000 0.000000 -4.961590 -1.819849 -31.869795 -1.838764 -6.220184 51.000171 9.733211 -7.961496 -12.330457 0.000000 -0.000000 0.000000 -1.724050 -5.212028 16.358189 4.608639 -1.706276 0.336775 2.803723 -4.332759 3.584555 1.842704 0.773122 1.306283 1.183133 0.683545 5.258338 -12.111569 3.144483 7.066017 -64.427573 -12.291391 14.554331 -47.127503 -77.124952 73.372028 12.102101 -10.826029 -11.154060 16.520209 -4.891045 1.720179 59.496643 -9.258440 11.303448 -13.537337 52.792336 2.318739 3.429104 9.297136 -2.038148 
-0.269616 1.680450 0.985696 -166.798688 0.380025 85.863244 4.759789 9.064392 9.960957 -6.172015 -1.862012 18.443188 5.062315 13.685248 -31.161415 0.000000 -0.000000 0.000000 -4.887713 -2.186998 -32.877096 -1.549681 -6.335835 43.336399 10.399836 -6.870873 -12.779362 0.000000 -0.000000 0.000000 -1.328539 -5.505094 15.928033 4.608310 -1.944184 0.370698 3.047306 -4.524141 3.397493 1.632132 0.878859 0.420402 1.514178 0.572141 3.938521 -11.959100 2.838063 6.892356 -65.668201 -13.179942 15.333099 -49.532956 -77.516409 76.055249 12.134616 -10.947352 -11.594871 16.200347 -5.089272 1.877011 59.561150 -9.238997 11.040149 -13.631306 53.042843 2.390579 3.327933 9.262132 -2.208466 
-0.269520 1.699130 0.984253 -166.275619 0.298597 86.556842 5.168959 9.313952 10.743039 -5.994271 -2.319783 17.854775 4.490425 13.076680 -31.306629 0.000000 -0.000000 0.000000 -4.915679 -2.495257 -33.461846 -1.890400 -6.850707 37.520096 10.749776 -6.901310 -12.857039 0.000000 -0.000000 0.000000 -0.978471 -5.728398 15.679905 4.544152 -2.038564 0.504815 3.249527 -4.663399 3.246892 1.454377 0.751628 -0.542276 1.861932 0.571493 2.261765 -11.835182 2.654814 6.869821 -66.616396 -13.652857 15.985596 -53.467273 -77.643610 80.454586 11.439637 -10.947519 -12.397168 15.937665 -5.205131 1.966788 59.756220 -9.222215 10.826762 -13.853959 53.035831 2.235133 3.602566 9.100212 -2.209917 
-0.268939 1.719213 0.981813 -165.679059 0.053455 86.988773 5.530063 9.400408 11.672113 -5.875103 -2.886271 17.735902 3.891322 12.573843 -31.500079 0.000000 -0.000000 0.000000 -5.017947 -2.574695 -33.696537 -2.377026 -7.386462 34.706484 10.668403 -7.346233 -12.717561 0.000000 -0.000000 0.000000 -0.632293 -5.953247 15.695328 4.491290 -2.023995 0.780467 3.357492 -4.681521 3.191424 1.315311 0.473646 -1.619163 2.130555 0.428608 0.408603 -11.838783 2.413505 6.824486 -67.271951 -13.789085 16.489218 -56.657405 -77.367285 84.107793 11.021286 -11.114812 -12.973319 15.773132 -5.100612 1.998938 59.983680 -9.225751 10.592450 -14.125216 52.877109 1.947237 3.700113 8.962354 -2.103813 
-0.268013 1.740720 0.978222 -164.848791 -0.379734 87.224350 5.819979 9.218750 12.599257 -5.877948 -3.702065 18.202715 3.356715 12.211089 -31.736581 0.000000 -0.000000 0.000000 -5.269935 -2.349888 -33.910202 -2.537972 -7.086200 36.115011 10.402521 -7.708765 -12.638210 0.000000 -0.000000 0.000000 -0.375617 -6.209655 15.835349 4.541056 -1.947274 1.244484 3.354182 -4.695521 3.181747 1.301857 0.122586 -2.770128 2.237768 0.136133 -1.525184 -12.023080 2.135206 6.690522 -67.640750 -13.647220 16.923542 -58.074718 -76.884266 85.963418 10.809928 -11.338259 -13.100605 15.785511 -4.874680 1.773550 60.043611 -9.326376 10.491455 -14.299244 52.660119 1.679042 3.672688 8.886514 -1.888021 
